<svg width="375" height="375" viewBox="0 0 375 375" fill="none" xmlns="http://www.w3.org/2000/svg">
<path d="M291.49 151.8C292.27 159.65 287.58 166.55 281.49 166.55H93.55C87.46 166.55 82.76 159.66 83.55 151.8C86.1 125 101.79 104 121.63 99.22V98.15C121.63 88.69 127.52 81.05 134.81 81.05H240.22C247.51 81.05 253.4 88.69 253.4 98.15V99.22C273.25 104 288.93 125 291.49 151.8Z" fill="#353535"/>
<path d="M195.79 185.15V208C195.814 209.682 196.504 211.287 197.71 212.46C198.915 213.634 200.537 214.281 202.22 214.26H239.3C240.267 214.251 241.223 214.463 242.095 214.879C242.968 215.296 243.734 215.905 244.336 216.662C244.937 217.419 245.358 218.303 245.567 219.247C245.776 220.191 245.766 221.17 245.54 222.11C243.562 230.704 238.512 238.279 231.34 243.41C221.7 250.35 208.747 253.92 192.48 254.12C173.6 253.727 158.437 247.393 146.99 235.12C135.543 222.847 129.72 206.29 129.52 185.45V185.38C129.528 184.534 129.367 183.694 129.048 182.911C128.728 182.127 128.256 181.415 127.659 180.816C127.061 180.216 126.35 179.742 125.568 179.42C124.785 179.098 123.946 178.935 123.1 178.94H89.8699C88.2197 178.912 86.6239 179.531 85.4227 180.663C84.2216 181.795 83.5101 183.351 83.4399 185C83.4399 185.147 83.4399 185.29 83.4399 185.43C84.0399 217.75 94.2833 243.723 114.17 263.35C134.05 283.177 160.157 293.387 192.49 293.98C223.41 293.78 247.607 285.85 265.08 270.19C282.553 254.53 291.39 232.62 291.59 204.46V198C291.521 192.858 289.414 187.954 285.732 184.365C282.049 180.776 277.092 178.796 271.95 178.86H202.21C201.375 178.851 200.547 179.006 199.772 179.317C198.998 179.629 198.292 180.09 197.696 180.674C197.099 181.258 196.624 181.954 196.297 182.722C195.97 183.49 195.798 184.315 195.79 185.15Z" fill="#86B1B5"/>
</svg>
