<svg width="25" height="25" viewBox="0 0 25 25" fill="none" xmlns="http://www.w3.org/2000/svg">
<path d="M18.3363 0C22.5875 0 24.9875 2.41125 25 6.6625V18.3375C25 22.5875 22.5875 25 18.3363 25H6.6625C2.41125 25 0 22.5875 0 18.3375V6.6625C0 2.41125 2.41125 0 6.6625 0H18.3363ZM13.125 5.1625C12.7738 4.95 12.3488 4.95 12.0125 5.1625C11.6738 5.37375 11.4875 5.7625 11.5238 6.15V18.8875C11.5875 19.425 12.0363 19.825 12.5613 19.825C13.1 19.825 13.5488 19.425 13.5988 18.8875V6.15C13.6488 5.7625 13.4625 5.37375 13.125 5.1625ZM7.2875 9.2625C6.95 9.05 6.52375 9.05 6.1875 9.2625C5.84875 9.475 5.6625 9.86125 5.7 10.25V18.8875C5.74875 19.425 6.19875 19.825 6.73625 19.825C7.275 19.825 7.72375 19.425 7.77375 18.8875V10.25C7.8125 9.86125 7.62375 9.475 7.2875 9.2625ZM18.8613 13.8C18.525 13.5875 18.1 13.5875 17.75 13.8C17.4113 14.0125 17.225 14.3863 17.275 14.7875V18.8875C17.325 19.425 17.7738 19.825 18.3125 19.825C18.8375 19.825 19.2863 19.425 19.35 18.8875V14.7875C19.3863 14.3863 19.2 14.0125 18.8613 13.8Z" fill="#85B1B4"/>
</svg>
