<svg width="26" height="26" viewBox="0 0 26 26" fill="none" xmlns="http://www.w3.org/2000/svg">
<path d="M24.1296 11.3574L20.2117 4.23175C20.202 4.21387 20.1809 4.20738 20.1695 4.19113C20.0749 4.03913 19.9321 3.92322 19.7639 3.86195C19.5957 3.80068 19.4118 3.79757 19.2416 3.85313L13 5.9315V3.8125C13 3.59701 12.9144 3.39035 12.762 3.23798C12.6097 3.0856 12.403 3 12.1875 3C11.972 3 11.7653 3.0856 11.613 3.23798C11.4606 3.39035 11.375 3.59701 11.375 3.8125V6.471L4.59063 8.72813C4.53538 8.746 4.49312 8.78338 4.44437 8.81263H4.44275C4.33391 8.87583 4.2415 8.96379 4.173 9.06938C4.16488 9.08075 4.15025 9.08562 4.14213 9.09862L0.10725 16.208C0.0240284 16.3619 -0.00623628 16.5389 0.021125 16.7117C0.01625 16.7459 0 16.7768 0 16.8125C0 18.4862 2.52687 20.875 4.875 20.875C7.22313 20.875 9.75 18.4862 9.75 16.8125C9.74936 16.7115 9.72893 16.6115 9.68987 16.5184L9.68825 16.5086L9.68338 16.4924C9.66988 16.3928 9.6385 16.2964 9.59075 16.208L6.04337 9.95987L11.375 8.18537V21.6875C11.375 21.903 11.4606 22.1097 11.613 22.262C11.7653 22.4144 11.972 22.5 12.1875 22.5C12.403 22.5 12.6097 22.4144 12.762 22.262C12.9144 22.1097 13 21.903 13 21.6875V7.64425L17.7873 6.05175L14.8704 11.359C14.7926 11.4339 14.7308 11.5238 14.6887 11.6232C14.6465 11.7226 14.6248 11.8295 14.625 11.9375C14.625 13.6112 17.1519 16 19.5 16C21.8481 16 24.375 13.6112 24.375 11.9375C24.375 11.8293 24.3533 11.7222 24.3111 11.6226C24.269 11.5229 24.2073 11.4327 24.1296 11.3574ZM2.093 16L4.849 11.1461L7.60337 16H2.093ZM16.8545 11.125L19.5 6.31175L22.1455 11.125H16.8545Z" fill="black"/>
</svg>
