<svg width="25" height="25" viewBox="0 0 25 25" fill="none" xmlns="http://www.w3.org/2000/svg">
<path d="M13.9313 0.525197C13.1281 -0.175066 11.8719 -0.175066 11.0687 0.525197L0.978083 9.32356C0.35375 9.86795 0 10.6254 0 11.4177V22.118C0 23.7096 1.3991 25 3.125 25H6.25C7.9759 25 9.375 23.7096 9.375 22.118V17.3147C9.375 16.7842 9.84137 16.3541 10.4167 16.3541H14.5833C15.1586 16.3541 15.625 16.7842 15.625 17.3147V22.118C15.625 23.7096 17.0242 25 18.75 25H21.875C23.6008 25 25 23.7096 25 22.118V11.4177C25 10.6254 24.6462 9.86795 24.0219 9.32356L13.9313 0.525197Z" fill="#2C3550" fill-opacity="0.2"/>
</svg>
