<svg width="22" height="28" viewBox="0 0 22 28" fill="none" xmlns="http://www.w3.org/2000/svg">
<path fill-rule="evenodd" clip-rule="evenodd" d="M17.9508 7.31415C17.9508 11.3537 14.7666 14.6283 10.8385 14.6283C6.91053 14.6283 3.72624 11.3537 3.72624 7.31415C3.72624 3.27466 6.91053 0 10.8385 0C14.7666 0 17.9508 3.27466 17.9508 7.31415ZM16.9431 18.749C19.2045 19.2069 20.6809 19.954 21.3136 21.1589C21.7888 22.0994 21.7888 23.2189 21.3136 24.1593C20.6809 25.3643 19.2631 26.1596 16.9197 26.5692C15.8754 26.7798 14.8184 26.9167 13.7561 26.9789C12.7718 27.0874 11.7876 27.0874 10.7916 27.0874H8.9989C8.62395 27.0392 8.26072 27.0151 7.90921 27.0151C6.84678 26.9604 5.78953 26.8275 4.74558 26.6174C2.48418 26.1837 1.00782 25.4125 0.375098 24.2075C0.130843 23.7407 0.00207202 23.2193 0.000149661 22.6892C-0.00494151 22.156 0.119935 21.6298 0.36338 21.1589C0.984388 19.954 2.46075 19.1707 4.74558 18.749C5.79413 18.5432 6.85499 18.4103 7.92092 18.3514C9.87079 18.1942 11.8296 18.1942 13.7795 18.3514C14.8413 18.4133 15.8981 18.5461 16.9431 18.749Z" fill="#2C3550" fill-opacity="0.2"/>
</svg>
