<svg width="22" height="27" viewBox="0 0 22 27" fill="none" xmlns="http://www.w3.org/2000/svg">
<path d="M0.0246523 4.69533C-0.0394528 4.10353 0.0218059 3.50486 0.20444 2.93831C0.387073 2.37176 0.686987 1.85002 1.08465 1.40708C1.48232 0.964135 1.96882 0.609914 2.51247 0.36748C3.05613 0.125046 3.64475 -0.000164886 4.24001 1.62958e-07H17.1913C17.7864 1.8271e-05 18.3749 0.125364 18.9184 0.367879C19.4619 0.610394 19.9483 0.964641 20.3458 1.40756C20.7433 1.85049 21.0431 2.37216 21.2257 2.93862C21.4082 3.50508 21.4694 4.10364 21.4053 4.69533L19.3759 23.4649C19.2984 24.1846 18.9576 24.8502 18.419 25.3339C17.8805 25.8176 17.1822 26.0851 16.4583 26.0851H4.9717C4.24804 26.0852 3.54989 25.8178 3.01136 25.3344C2.47284 24.851 2.13191 24.1857 2.05408 23.4662L0.0246523 4.69533ZM1.98104 3.90886H19.4503C19.3707 3.36648 19.0988 2.87079 18.684 2.51233C18.2693 2.15386 17.7395 1.95654 17.1913 1.95639H4.24001C3.07922 1.95639 2.13885 2.8172 1.98104 3.90886ZM10.4444 10.9675C10.4742 10.9231 10.5145 10.8867 10.5617 10.8616C10.6089 10.8365 10.6615 10.8233 10.715 10.8233C10.7685 10.8233 10.8211 10.8365 10.8683 10.8616C10.9155 10.8867 10.9558 10.9231 10.9856 10.9675L11.8595 12.2718C11.9291 12.3826 12.0202 12.4783 12.1274 12.5533C12.2347 12.6283 12.3559 12.681 12.4839 12.7083C12.6119 12.7356 12.744 12.737 12.8725 12.7123C13.0011 12.6876 13.1233 12.6374 13.2321 12.5646C13.3408 12.4918 13.4339 12.3979 13.5057 12.2885C13.5775 12.1791 13.6267 12.0564 13.6502 11.9277C13.6737 11.7989 13.6712 11.6668 13.6428 11.5391C13.6143 11.4113 13.5605 11.2906 13.4846 11.184L12.612 9.87975C12.4035 9.56769 12.1212 9.31188 11.7902 9.13497C11.4592 8.95806 11.0897 8.8655 10.7143 8.8655C10.339 8.8655 9.96949 8.95806 9.63848 9.13497C9.30747 9.31188 9.02519 9.56769 8.81665 9.87975L7.94541 11.184C7.80117 11.3997 7.74851 11.6638 7.79901 11.9183C7.84952 12.1728 7.99906 12.3968 8.21474 12.5411C8.43041 12.6853 8.69456 12.738 8.94906 12.6875C9.20356 12.637 9.42757 12.4874 9.57182 12.2718L10.4444 10.9675ZM7.96628 15.1659C8.03391 15.0557 8.07903 14.9332 8.09903 14.8055C8.11903 14.6778 8.11352 14.5474 8.08282 14.4218C8.05212 14.2963 7.99683 14.178 7.92015 14.0739C7.84347 13.9699 7.74692 13.882 7.63609 13.8155C7.52525 13.749 7.40233 13.705 7.27442 13.6863C7.14652 13.6676 7.01616 13.6744 6.8909 13.7063C6.76564 13.7383 6.64795 13.7947 6.54464 13.8724C6.44132 13.9501 6.35444 14.0475 6.289 14.159L5.81425 14.9507C4.77085 16.6893 6.02293 18.9026 8.05105 18.9026H9.08403C9.34346 18.9026 9.59227 18.7995 9.77571 18.6161C9.95916 18.4326 10.0622 18.1838 10.0622 17.9244C10.0622 17.665 9.95916 17.4162 9.77571 17.2327C9.59227 17.0493 9.34346 16.9462 9.08403 16.9462H8.05105C7.93548 16.9464 7.82193 16.9158 7.72205 16.8577C7.62216 16.7995 7.53952 16.7159 7.4826 16.6153C7.42567 16.5147 7.3965 16.4008 7.39806 16.2852C7.39963 16.1697 7.43189 16.0566 7.49153 15.9576L7.96628 15.1659ZM13.8015 13.8225C13.6911 13.8885 13.5948 13.9757 13.5181 14.079C13.4414 14.1822 13.3859 14.2996 13.3546 14.4244C13.3234 14.5492 13.317 14.6789 13.336 14.8062C13.3549 14.9334 13.3988 15.0556 13.465 15.1659L13.9398 15.9576C13.9991 16.0566 14.0311 16.1695 14.0325 16.2849C14.0339 16.4002 14.0046 16.5139 13.9477 16.6143C13.8909 16.7147 13.8084 16.7982 13.7087 16.8563C13.609 16.9143 13.4956 16.9449 13.3803 16.9449H12.3447C12.0852 16.9449 11.8364 17.048 11.653 17.2314C11.4695 17.4149 11.3665 17.6637 11.3665 17.9231C11.3665 18.1825 11.4695 18.4313 11.653 18.6148C11.8364 18.7982 12.0852 18.9013 12.3447 18.9013H13.3803C15.4071 18.9013 16.6605 16.6906 15.6184 14.952L15.1436 14.1603C15.0776 14.0501 14.9905 13.9539 14.8873 13.8774C14.7842 13.8008 14.6669 13.7453 14.5423 13.714C14.4176 13.6828 14.2881 13.6764 14.161 13.6952C14.0339 13.7141 13.9117 13.7578 13.8015 13.8238" fill="#2C3550" fill-opacity="0.2"/>
</svg>
