<svg width="32" height="32" viewBox="0 0 32 32" fill="none" xmlns="http://www.w3.org/2000/svg">
<path fill-rule="evenodd" clip-rule="evenodd" d="M11.5455 0.117676H5.3514C4.11877 0.117676 2.93724 0.619558 2.06697 1.51373C1.19515 2.40632 0.705811 3.61815 0.705811 4.88238C0.705811 6.57068 0.705811 8.79897 0.705811 11.2353C0.705811 12.112 1.39955 12.8236 2.25434 12.8236C3.10913 12.8236 3.80287 12.112 3.80287 11.2353V4.88238C3.80287 4.4615 3.96547 4.0565 4.25659 3.7595C4.54616 3.46091 4.94104 3.29415 5.3514 3.29415H11.5455C12.4003 3.29415 13.094 2.58262 13.094 1.70591C13.094 0.829205 12.4003 0.117676 11.5455 0.117676ZM0.705811 19.1765V27.1177C0.705811 28.3819 1.19515 29.5937 2.06697 30.4863C2.93724 31.3805 4.11877 31.8824 5.3514 31.8824C6.63203 31.8824 8.23166 31.8824 9.99699 31.8824C10.8518 31.8824 11.5455 31.1709 11.5455 30.2941C11.5455 29.4174 10.8518 28.7059 9.99699 28.7059H5.3514C4.94104 28.7059 4.54616 28.5391 4.25659 28.2406C3.96547 27.9436 3.80287 27.5386 3.80287 27.1177V19.1765C3.80287 18.2998 3.10913 17.5883 2.25434 17.5883C1.39955 17.5883 0.705811 18.2998 0.705811 19.1765ZM20.8367 31.8824H27.0308C28.2634 31.8824 29.445 31.3805 30.3152 30.4863C31.1871 29.5937 31.6764 28.3819 31.6764 27.1177C31.6764 25.4294 31.6764 23.2011 31.6764 20.7647C31.6764 19.888 30.9827 19.1765 30.1279 19.1765C29.2731 19.1765 28.5793 19.888 28.5793 20.7647V27.1177C28.5793 27.5386 28.4167 27.9436 28.1256 28.2406C27.836 28.5391 27.4412 28.7059 27.0308 28.7059H20.8367C19.9819 28.7059 19.2882 29.4174 19.2882 30.2941C19.2882 31.1709 19.9819 31.8824 20.8367 31.8824ZM31.6764 11.2353V4.88238C31.6764 3.61815 31.1871 2.40632 30.3152 1.51373C29.445 0.619558 28.2634 0.117676 27.0308 0.117676C25.3847 0.117676 23.2121 0.117676 20.8367 0.117676C19.9819 0.117676 19.2882 0.829205 19.2882 1.70591C19.2882 2.58262 19.9819 3.29415 20.8367 3.29415H27.0308C27.4412 3.29415 27.836 3.46091 28.1256 3.7595C28.4167 4.0565 28.5793 4.4615 28.5793 4.88238V11.2353C28.5793 12.112 29.2731 12.8236 30.1279 12.8236C30.9827 12.8236 31.6764 12.112 31.6764 11.2353ZM8.44846 17.5883H23.9338C24.7885 17.5883 25.4823 16.8767 25.4823 16C25.4823 15.1233 24.7885 14.4118 23.9338 14.4118H8.44846C7.59367 14.4118 6.89993 15.1233 6.89993 16C6.89993 16.8767 7.59367 17.5883 8.44846 17.5883Z" fill="white"/>
</svg>
